<?xml version="1.0" encoding="utf-8"?>
<!-- Generator: Adobe Illustrator 22.0.1, SVG Export Plug-In . SVG Version: 6.00 Build 0)  -->
<svg version="1.1" id="Layer_1" xmlns="http://www.w3.org/2000/svg" xmlns:xlink="http://www.w3.org/1999/xlink" x="0px" y="0px"
	 viewBox="0 0 24 12" style="enable-background:new 0 0 24 12;" xml:space="preserve">
<style type="text/css">
	.st0{fill:#FFFFFF;}
</style>
<g id="mute">
	<path class="st0" d="M23.5,7h-23C0.2,7,0,6.8,0,6.5V6.4C0,6.2,0.2,6,0.5,6h23C23.8,6,24,6.2,24,6.5v0.1C24,6.8,23.8,7,23.5,7z"/>
</g>
<g id="sound">
	<path class="st0" d="M18.6,3.1c-1.4,0-1.4,3.8-2,5.1c-0.1,0.1-0.2,0.2-0.4,0.1c-0.1,0-0.1-0.1-0.1-0.2C15.3,5.7,15.6,0,13.5,0
		c-2.2,0-1.6,7.4-2.5,10.5c-0.1,0.2-0.4,0.2-0.5,0C9.7,8.3,9.8,3.6,8.1,3.6c-1.8,0-1.6,3.9-2.3,5.5C5.7,9.3,5.6,9.4,5.4,9.3
		c-0.1,0-0.1-0.1-0.1-0.1C4.8,8.1,4.6,6,2.7,6H0.5C0.2,6,0,6.2,0,6.5S0.2,7,0.5,7h2.2c1.6,0,1,3.5,2.9,3.5c1.7,0,1.5-3.8,2.2-5.5
		c0-0.1,0.2-0.2,0.3-0.1C8.2,4.9,8.2,5,8.3,5c0.8,2,0.8,7,2.6,7c2.1,0,1.3-7.9,2.4-10.6c0.1-0.1,0.2-0.2,0.3-0.1
		c0.1,0,0.1,0.1,0.1,0.1c1,2.2,0.5,8.1,2.3,8.1c1.6,0,1.7-3.7,2.2-5c0.1-0.1,0.2-0.2,0.3-0.2c0.1,0,0.1,0.1,0.1,0.1
		C19.1,5.4,19.4,7,21,7h2.2C23.8,7,24,6.8,24,6.5S23.8,6,23.5,6h-2.2C19.9,6,20.1,3.1,18.6,3.1z"/>
</g>
</svg>
