<?xml version="1.0" encoding="utf-8"?>
<!-- Generator: Adobe Illustrator 22.0.1, SVG Export Plug-In . SVG Version: 6.00 Build 0)  -->
<svg version="1.1" id="Layer_1" xmlns="http://www.w3.org/2000/svg" xmlns:xlink="http://www.w3.org/1999/xlink" x="0px" y="0px"
	 viewBox="0 0 65.3 65.2" style="enable-background:new 0 0 65.3 65.2;" xml:space="preserve">
<style type="text/css">
	.st0{fill:#E1F3F9;}
	.st1{fill:#231F20;}
	.st2{fill:#DDB65A;}
	.st3{fill:#F4EECB;}
</style>
<circle class="st0" cx="32.6" cy="32.6" r="32.6"/>
<path class="st1" d="M16.7,28.4c3.4,3.5,8.8,3.4,12.5,0.2c5.3-4.6,9-14.2,5.6-17.8c-3.4-3.5-13-0.3-17.9,5.1
	C13.7,19.5,13.3,24.9,16.7,28.4"/>
<path class="st2" d="M19.8,27.8c3.3,2.4,7.8,1.5,10.4-1.6c3.7-4.7,5.4-13.1,2.1-15.4c-3.3-2.5-10.7,1.7-14.1,6.7
	C15.9,20.9,16.5,25.4,19.8,27.8"/>
<path class="st3" d="M31.4,10.3c-3.6-1.4-10.2,2.5-13.3,7.2c-0.9,1.3-1.3,2.8-1.3,4.3c0.5,1,1.1,1.8,2.1,2.5c3,2.2,7.1,1.4,9.4-1.5
	C31.2,19.3,32.6,13.5,31.4,10.3"/>
<path class="st1" d="M32.1,34.3c-0.3-0.6-0.8-1.1-1.4-1.1c-0.6,0-0.9,0.3-0.9,0.7c0,0.5,0.6,1.2,1.3,2c0.6,0.6,0.8,1.2,0.7,1.9
	c-0.2,1.2-1.1,2.1-2.7,2.1c-1.1,0-1.8-0.4-1.8-0.8c0-0.1,0-0.2,0-0.3l0.4-1c0.4,0.6,0.9,1.1,1.4,1.1c0.8,0,1.2-0.3,1.3-0.6
	c0.1-0.5-0.4-1-0.9-1.5c-0.9-0.9-1.4-1.3-1.3-2.5c0.2-1.1,1-1.9,2.4-1.9c1.1,0,1.8,0.5,1.8,0.9c0,0.1,0,0.2-0.1,0.3L32.1,34.3
	 M47.4,29.7c-0.2-0.2-0.4-0.3-0.6-0.3c-0.5,0-0.7,0.3-0.8,1l-0.3,1.8c0.1,0,0.2,0,0.3,0c0.3,0,0.5,0,0.7-0.1l-0.1,0.5
	c-0.1,0.4-0.2,0.5-0.5,0.5h-0.5l-0.8,5.2c-0.4,2.9-1.2,4-1.7,3.9l-1.1-0.2c0.8-0.3,1-1.3,1.3-3.7l0.8-5.1c-0.1,0-0.2,0-0.2,0
	c-0.2,0-0.4,0-0.7,0.1l0.1-0.7c0.1-0.3,0.2-0.4,0.5-0.4h0.4l0.3-1.7c0.2-1.4,1-2.1,2.5-2.1c0.6,0,0.9,0.2,0.9,0.5
	c0,0.1-0.1,0.3-0.1,0.4L47.4,29.7z M41.2,37c-0.1,0.5-0.1,0.8-0.1,0.9c0,0.5,0.3,0.8,0.8,0.8c0.1,0,0.2,0,0.4-0.1l-0.3,0.6
	c-0.2,0.3-0.3,0.4-0.7,0.4c-1.1,0-1.7-0.5-1.7-1.5c0-0.3,0.1-0.7,0.2-1.2l1.1-7.1c0.1-0.4,0.1-0.6,0.1-0.6c0-0.1,0-0.2-0.1-0.4
	l1.8-0.4L41.2,37z M34.6,36.3c2.6-0.1,4.3-1,4.3-2.8c0-0.7-0.7-1.3-1.8-1.3c-1,0-2.2,0.5-2.9,1.3c-0.8,0.9-1.3,2.2-1.3,3.4
	c0,1.9,1.1,2.8,2.8,2.8c1.2,0,2.2-0.5,2.3-1.3l0.2-1.1c-0.8,0.9-1.4,1.3-2.1,1.3c-0.9,0-1.4-0.7-1.4-1.7
	C34.5,36.7,34.6,36.5,34.6,36.3z M34.8,35.4c0.4-1.5,1.4-2.4,2.2-2.4c0.3,0,0.5,0.2,0.5,0.6C37.4,34.5,36.4,35.3,34.8,35.4z"/>
<path class="st1" d="M18.8,16.1c0,0,1.3-1,2.6-1.1c0,0-0.6,1.8-0.7,3.8c2.2-1.2,6.4-2.4,6.4-2.4s-0.7,2.8-1.6,5.1c0,0,1,0,1.7,0.1
	c0,0,0.2,0.5,0.4,1.6c0.2-1.3,0-2,0-2c-0.8-0.1-1.5-0.2-1.5-0.2c1.1-2.4,2.1-5.7,2.1-5.7C24.8,16,22,17.4,22,17.4c0.1-1,1-3.6,1-3.6
	c-1.1-0.1-2.6,0.7-2.6,0.7L18.8,16.1"/>
</svg>
